solid Untitled-5c2858f2
facet normal 0.0 0.0 -1.0
  outer loop
    vertex 25.76381543618632 24.2494029707792 0.0
    vertex 8.341165705375948 22.2494029707792 0.0
    vertex 8.341165705375948 24.249402970779204 0.0
  endloop
endfacet
facet normal 0.0 0.0 -1.0
  outer loop
    vertex 8.341165705375948 22.2494029707792 0.0
    vertex 25.76381543618632 24.2494029707792 0.0
    vertex 25.763815436186324 22.2494029707792 0.0
  endloop
endfacet
facet normal 0.0 0.0 -1.0
  outer loop
    vertex 25.763815436186324 22.2494029707792 0.0
    vertex 25.76381543618632 24.2494029707792 0.0
    vertex 34.47514030159151 39.33786023889909 0.0
  endloop
endfacet
facet normal 0.0 0.0 -1.0
  outer loop
    vertex 25.763815436186324 22.2494029707792 0.0
    vertex 34.47514030159151 39.33786023889909 0.0
    vertex 27.4958662437552 23.2494029707792 0.0
  endloop
endfacet
facet normal 0.0 0.0 -1.0
  outer loop
    vertex 27.4958662437552 23.2494029707792 0.0
    vertex 34.47514030159151 39.33786023889909 0.0
    vertex 36.20719110916039 38.33786023889908 0.0
  endloop
endfacet
facet normal 0.0 0.0 -1.0
  outer loop
    vertex 27.4958662437552 23.2494029707792 0.0
    vertex 34.47514030159151 7.160945702659312 0.0
    vertex 25.763815436186324 22.2494029707792 0.0
  endloop
endfacet
facet normal 0.0 0.0 -1.0
  outer loop
    vertex 34.47514030159151 7.160945702659312 0.0
    vertex 27.4958662437552 23.2494029707792 0.0
    vertex 36.20719110916039 8.16094570265931 0.0
  endloop
endfacet
facet normal 0.0 0.0 1.0
  outer loop
    vertex 34.47514030159151 7.160945702659312 0.20000000000000004
    vertex 27.4958662437552 23.2494029707792 0.20000000000000004
    vertex 25.763815436186324 22.2494029707792 0.20000000000000004
  endloop
endfacet
facet normal 0.0 0.0 1.0
  outer loop
    vertex 27.4958662437552 23.2494029707792 0.20000000000000004
    vertex 34.47514030159151 7.160945702659312 0.20000000000000004
    vertex 36.20719110916039 8.16094570265931 0.20000000000000004
  endloop
endfacet
facet normal 0.0 0.0 1.0
  outer loop
    vertex 25.763815436186324 22.2494029707792 0.20000000000000004
    vertex 8.341165705375948 24.249402970779204 0.20000000000000004
    vertex 8.341165705375948 22.2494029707792 0.20000000000000004
  endloop
endfacet
facet normal 0.0 0.0 1.0
  outer loop
    vertex 8.341165705375948 24.249402970779204 0.20000000000000004
    vertex 25.763815436186324 22.2494029707792 0.20000000000000004
    vertex 25.76381543618632 24.2494029707792 0.20000000000000004
  endloop
endfacet
facet normal 0.0 0.0 1.0
  outer loop
    vertex 25.76381543618632 24.2494029707792 0.20000000000000004
    vertex 25.763815436186324 22.2494029707792 0.20000000000000004
    vertex 34.47514030159151 39.33786023889909 0.20000000000000004
  endloop
endfacet
facet normal 0.0 0.0 1.0
  outer loop
    vertex 34.47514030159151 39.33786023889909 0.20000000000000004
    vertex 25.763815436186324 22.2494029707792 0.20000000000000004
    vertex 27.4958662437552 23.2494029707792 0.20000000000000004
  endloop
endfacet
facet normal 0.0 0.0 1.0
  outer loop
    vertex 34.47514030159151 39.33786023889909 0.20000000000000004
    vertex 27.4958662437552 23.2494029707792 0.20000000000000004
    vertex 36.20719110916039 38.33786023889908 0.20000000000000004
  endloop
endfacet
facet normal 1.6185634941400695e-16 1.0 0.0
  outer loop
    vertex 8.341165705375948 24.249402970779204 0.20000000000000004
    vertex 25.76381543618632 24.2494029707792 0.0
    vertex 8.341165705375948 24.249402970779204 0.0
  endloop
endfacet
facet normal 1.6185634941400695e-16 1.0 0.0
  outer loop
    vertex 25.76381543618632 24.2494029707792 0.0
    vertex 8.341165705375948 24.249402970779204 0.20000000000000004
    vertex 25.76381543618632 24.2494029707792 0.20000000000000004
  endloop
endfacet
facet normal -1.0 -0.0 -0.0
  outer loop
    vertex 8.341165705375948 24.249402970779204 0.20000000000000004
    vertex 8.341165705375948 22.2494029707792 0.0
    vertex 8.341165705375948 22.2494029707792 0.20000000000000004
  endloop
endfacet
facet normal -1.0 -0.0 -0.0
  outer loop
    vertex 8.341165705375948 22.2494029707792 0.0
    vertex 8.341165705375948 24.249402970779204 0.20000000000000004
    vertex 8.341165705375948 24.249402970779204 0.0
  endloop
endfacet
facet normal 0.0 -1.0 0.0
  outer loop
    vertex 25.763815436186324 22.2494029707792 0.20000000000000004
    vertex 8.341165705375948 22.2494029707792 0.0
    vertex 25.763815436186324 22.2494029707792 0.0
  endloop
endfacet
facet normal 0.0 -1.0 0.0
  outer loop
    vertex 8.341165705375948 22.2494029707792 0.0
    vertex 25.763815436186324 22.2494029707792 0.20000000000000004
    vertex 8.341165705375948 22.2494029707792 0.20000000000000004
  endloop
endfacet
facet normal -0.8660254037844386 -0.5000000000000001 -0.0
  outer loop
    vertex 25.763815436186324 22.2494029707792 0.20000000000000004
    vertex 34.47514030159151 7.160945702659312 0.0
    vertex 34.47514030159151 7.160945702659312 0.20000000000000004
  endloop
endfacet
facet normal -0.8660254037844386 -0.5000000000000001 -0.0
  outer loop
    vertex 34.47514030159151 7.160945702659312 0.0
    vertex 25.763815436186324 22.2494029707792 0.20000000000000004
    vertex 25.763815436186324 22.2494029707792 0.0
  endloop
endfacet
facet normal 0.4999999999999991 -0.8660254037844393 0.0
  outer loop
    vertex 36.20719110916039 8.16094570265931 0.20000000000000004
    vertex 34.47514030159151 7.160945702659312 0.0
    vertex 36.20719110916039 8.16094570265931 0.0
  endloop
endfacet
facet normal 0.4999999999999991 -0.8660254037844393 0.0
  outer loop
    vertex 34.47514030159151 7.160945702659312 0.0
    vertex 36.20719110916039 8.16094570265931 0.20000000000000004
    vertex 34.47514030159151 7.160945702659312 0.20000000000000004
  endloop
endfacet
facet normal 0.8660254037844387 0.5000000000000003 0.0
  outer loop
    vertex 27.4958662437552 23.2494029707792 0.0
    vertex 36.20719110916039 8.16094570265931 0.20000000000000004
    vertex 36.20719110916039 8.16094570265931 0.0
  endloop
endfacet
facet normal 0.8660254037844387 0.5000000000000003 0.0
  outer loop
    vertex 36.20719110916039 8.16094570265931 0.20000000000000004
    vertex 27.4958662437552 23.2494029707792 0.0
    vertex 27.4958662437552 23.2494029707792 0.20000000000000004
  endloop
endfacet
facet normal 0.8660254037844384 -0.5000000000000004 0.0
  outer loop
    vertex 36.20719110916039 38.33786023889908 0.0
    vertex 27.4958662437552 23.2494029707792 0.20000000000000004
    vertex 27.4958662437552 23.2494029707792 0.0
  endloop
endfacet
facet normal 0.8660254037844384 -0.5000000000000004 0.0
  outer loop
    vertex 27.4958662437552 23.2494029707792 0.20000000000000004
    vertex 36.20719110916039 38.33786023889908 0.0
    vertex 36.20719110916039 38.33786023889908 0.20000000000000004
  endloop
endfacet
facet normal 0.5000000000000012 0.8660254037844379 0.0
  outer loop
    vertex 34.47514030159151 39.33786023889909 0.20000000000000004
    vertex 36.20719110916039 38.33786023889908 0.0
    vertex 34.47514030159151 39.33786023889909 0.0
  endloop
endfacet
facet normal 0.5000000000000012 0.8660254037844379 0.0
  outer loop
    vertex 36.20719110916039 38.33786023889908 0.0
    vertex 34.47514030159151 39.33786023889909 0.20000000000000004
    vertex 36.20719110916039 38.33786023889908 0.20000000000000004
  endloop
endfacet
facet normal -0.8660254037844385 0.5000000000000003 0.0
  outer loop
    vertex 34.47514030159151 39.33786023889909 0.20000000000000004
    vertex 25.76381543618632 24.2494029707792 0.0
    vertex 25.76381543618632 24.2494029707792 0.20000000000000004
  endloop
endfacet
facet normal -0.8660254037844385 0.5000000000000003 0.0
  outer loop
    vertex 25.76381543618632 24.2494029707792 0.0
    vertex 34.47514030159151 39.33786023889909 0.20000000000000004
    vertex 34.47514030159151 39.33786023889909 0.0
  endloop
endfacet
endsolid Untitled-5c2858f2
